<svg viewBox="0 0 16 22" fill="none" xmlns="http://www.w3.org/2000/svg"><path fill-rule="evenodd" clip-rule="evenodd" d="M4.04 1.03a8 8 0 0 1 11.96 6.96c-.06 2.8-1.65 5.42-3.65 7.45a21.23 21.23 0 0 1-3.84 3.1c-.14.08-.3.14-.46.16a.96.96 0 0 1-.45-.13c-2.13-1.33-4-3.02-5.53-5a9.97 9.97 0 0 1-2.07-5.72 7.82 7.82 0 0 1 4.04-6.82Zm1.44 7.98c.42 1 1.41 1.65 2.51 1.65.72 0 1.41-.27 1.92-.77a2.64 2.64 0 0 0-.87-4.35 2.76 2.76 0 0 0-2.97.57 2.63 2.63 0 0 0-.6 2.9Z" fill="#316DC2"/><path d="M13.71 20.9c0 .6-2.55 1.1-5.71 1.1s-5.71-.5-5.71-1.1c0-.6 2.55-1.1 5.71-1.1s5.71.5 5.71 1.1Z" fill="#316DC2"/></svg>