<svg viewBox="0 0 14 22" fill="none" xmlns="http://www.w3.org/2000/svg"><path d="M7 3.33c1.32 0 2.4 1.05 2.4 2.35s-1.08 2.35-2.4 2.35a2.38 2.38 0 0 1-2.4-2.35c0-1.3 1.08-2.35 2.4-2.35Zm0 8.03c3.2 0 5.8-2.55 5.8-5.68s-2.6-5.68-5.8-5.68a5.74 5.74 0 0 0-5.79 5.68c0 3.13 2.6 5.68 5.79 5.68Zm2.34 4.63c1.18-.27 2.32-.73 3.37-1.37a1.65 1.65 0 0 0 .53-2.3 1.71 1.71 0 0 0-2.34-.52 7.49 7.49 0 0 1-7.8 0 1.72 1.72 0 0 0-2.34.53c-.5.77-.26 1.8.53 2.29 1.05.64 2.19 1.1 3.37 1.37l-3.24 3.17c-.66.65-.66 1.7 0 2.35a1.72 1.72 0 0 0 2.4 0l3.18-3.12 3.18 3.12c.67.65 1.74.65 2.4 0 .66-.65.66-1.7 0-2.35l-3.24-3.17Z" fill="#316DC2"/></svg>