<svg viewBox="0 0 20 22" fill="none" xmlns="http://www.w3.org/2000/svg"><path d="M11.95.5a2.1 2.1 0 0 0-1.63.83c-.39.5-.6 1.1-.76 1.73a14.94 14.94 0 0 0-.34 3.16c-1.8.13-3.43.7-4.79 1.56a2.8 2.8 0 0 0-1.85-.75 2.4 2.4 0 0 0-1.92 1 3.8 3.8 0 0 0 .27 4.64c-.07.38-.12.78-.12 1.18 0 4.23 4.11 7.65 9.19 7.65 5.08 0 9.2-3.43 9.2-7.65 0-.4-.06-.8-.13-1.18a3.8 3.8 0 0 0 .27-4.63 2.4 2.4 0 0 0-1.92-1.01c-.64 0-1.3.26-1.85.75a10.18 10.18 0 0 0-4.77-1.56c.03-.93.1-1.9.27-2.64.11-.46.25-.8.39-.98.14-.18.25-.26.49-.26.52 0 .58.18.9.6.15.22.34.5.63.75.29.27.72.5 1.19.5v-1.85c-.13 0-.16 0-.24-.09-.1-.08-.21-.27-.4-.51-.35-.5-1.05-1.24-2.08-1.24Zm5.05.17c-1.2 0-2.19 1.16-2.19 2.6 0 1.42.98 2.58 2.2 2.58 1.2 0 2.18-1.16 2.18-2.59s-.98-2.59-2.19-2.59Zm0 .92c.78 0 1.41.75 1.41 1.67 0 .92-.63 1.67-1.4 1.67-.79 0-1.42-.75-1.42-1.67 0-.92.64-1.67 1.41-1.67Zm-7 6.07c4.3 0 7.95 2.84 7.95 6.19 0 3.35-3.64 6.18-7.95 6.18-4.3 0-7.95-2.83-7.95-6.18 0-3.35 3.64-6.19 7.95-6.19Zm-7.4.84c.22 0 .45.06.66.17a7.5 7.5 0 0 0-1.82 2.42c-.3-.72-.21-1.6.15-2.07a1.2 1.2 0 0 1 1.02-.52Zm14.8 0c.39 0 .75.17 1.01.52.36.47.44 1.35.15 2.07a7.5 7.5 0 0 0-1.82-2.42c.21-.11.44-.17.65-.17Zm-10.51 2.3c-.78 0-1.41.75-1.41 1.67 0 .92.63 1.67 1.4 1.67.79 0 1.42-.75 1.42-1.67 0-.92-.63-1.67-1.41-1.67Zm6.22 0c-.78 0-1.4.75-1.4 1.67 0 .92.62 1.67 1.4 1.67.78 0 1.41-.75 1.41-1.67 0-.92-.63-1.67-1.4-1.67Zm-6.98 5.67a4.26 4.26 0 0 0 3.87 2.38 4.3 4.3 0 0 0 3.9-2.38 6.58 6.58 0 0 1-3.9 1.15 6.5 6.5 0 0 1-3.87-1.15Z" fill="#316DC2"/></svg>