<svg viewBox="0 0 22 12" fill="none" xmlns="http://www.w3.org/2000/svg"><path d="M21.8 10.7c-.06-.1-.42-.85-2.18-2.41-1.84-1.64-1.6-1.37.62-4.2 1.35-1.72 1.9-2.77 1.73-3.22-.16-.43-1.16-.32-1.16-.32l-3.3.02s-.25-.03-.43.07-.3.34-.3.34-.52 1.33-1.22 2.47c-1.47 2.39-2.06 2.51-2.3 2.37-.56-.35-.42-1.4-.42-2.14 0-2.31.37-3.28-.72-3.53a5.92 5.92 0 0 0-1.54-.15c-1.18 0-2.18 0-2.74.27-.38.18-.67.57-.5.6.22.02.72.12.98.46.34.44.33 1.43.33 1.43s.2 2.73-.46 3.07c-.44.23-1.05-.24-2.37-2.41-.67-1.11-1.18-2.34-1.18-2.34s-.1-.23-.27-.35c-.21-.15-.51-.2-.51-.2l-3.14.02s-.47.01-.65.2c-.15.18-.01.54-.01.54s2.46 5.5 5.25 8.28c2.55 2.55 5.45 2.38 5.45 2.38h1.32s.4-.04.6-.25c.19-.2.18-.55.18-.55s-.03-1.69.8-1.94c.8-.24 1.84 1.63 2.93 2.35.84.55 1.47.43 1.47.43l2.94-.04s1.53-.1.8-1.25Z" fill="#316DC2"/></svg>