<svg xmlns="http://www.w3.org/2000/svg" xmlns:xlink="http://www.w3.org/1999/xlink"><symbol id="sprite-icon-arrow-down" fill="none" viewBox="0 0 12 7"><path stroke="#fff" d="m11.46 6.18-5.46-4.9-5.45 4.9"/></symbol><use xlink:href="#sprite-icon-arrow-down" width="12" height="7"/><view id="sprite-icon-arrow-down-view" viewBox="0 0 12 7"/><symbol id="sprite-icon-arrow" fill="none" viewBox="0 0 8 8"><g clip-path="url(#a)"><path stroke="#fff" stroke-width="1.6" d="m.8 7.2 6.4-6.4m0 0h-6.36m6.36 0v6.36"/></g><defs><clipPath id="a"><path fill="#fff" d="M0 0h8v8h-8z"/></clipPath></defs></symbol><use xlink:href="#sprite-icon-arrow" width="8" height="8" y="7"/><view id="sprite-icon-arrow-view" viewBox="0 7 8 8"/><symbol id="sprite-icon-check" fill="none" viewBox="0 0 10 8"><path stroke="#316DC2" stroke-linecap="round" stroke-linejoin="round" d="m1 3.5 2.95 3.5 5.05-6"/></symbol><use xlink:href="#sprite-icon-check" width="10" height="8" y="15"/><view id="sprite-icon-check-view" viewBox="0 15 10 8"/><symbol id="sprite-icon-cross" fill="none" viewBox="0 0 20 20"><path stroke="#316DC2" stroke-linecap="round" stroke-linejoin="round" d="m1 19 9-9m0 0 9-9m-9 9 9 9m-9-9-9-9"/></symbol><use xlink:href="#sprite-icon-cross" width="20" height="20" y="23"/><view id="sprite-icon-cross-view" viewBox="0 23 20 20"/><symbol id="sprite-icon-menu" fill="none" viewBox="0 0 22 12"><path stroke="#316DC2" stroke-linecap="round" d="M1 1h20m-20 5h20m-20 5h20"/></symbol><use xlink:href="#sprite-icon-menu" width="22" height="12" y="43"/><view id="sprite-icon-menu-view" viewBox="0 43 22 12"/><symbol id="sprite-icon-minus" fill="none" viewBox="0 0 20 2"><path stroke="#316DC2" d="M0 1h20"/></symbol><use xlink:href="#sprite-icon-minus" width="20" height="2" y="55"/><view id="sprite-icon-minus-view" viewBox="0 55 20 2"/><symbol id="sprite-icon-ok" fill="none" viewBox="0 0 14 22"><path fill="#316DC2" d="M7 3.33c1.32 0 2.4 1.05 2.4 2.35s-1.08 2.35-2.4 2.35a2.4 2.4 0 0 1-2.4-2.35c0-1.3 1.08-2.35 2.4-2.35m0 8.03c3.2 0 5.8-2.55 5.8-5.68s-2.6-5.68-5.8-5.68a5.74 5.74 0 0 0-5.79 5.68c0 3.13 2.6 5.68 5.79 5.68m2.34 4.63q1.78-.4 3.37-1.37a1.65 1.65 0 0 0 .53-2.3 1.7 1.7 0 0 0-2.34-.52 7.5 7.5 0 0 1-7.8 0 1.7 1.7 0 0 0-2.34.53c-.5.77-.26 1.8.53 2.29q1.59.96 3.37 1.37l-3.24 3.17c-.66.65-.66 1.7 0 2.35a1.7 1.7 0 0 0 2.4 0l3.18-3.12 3.18 3.12c.67.65 1.74.65 2.4 0s.66-1.7 0-2.35z"/></symbol><use xlink:href="#sprite-icon-ok" width="14" height="22" y="57"/><view id="sprite-icon-ok-view" viewBox="0 57 14 22"/><symbol id="sprite-icon-plus" fill="none" viewBox="0 0 20 20"><path stroke="#316DC2" d="M10 0v10m0 0v10m0-10h-10m10 0h10"/></symbol><use xlink:href="#sprite-icon-plus" width="20" height="20" y="79"/><view id="sprite-icon-plus-view" viewBox="0 79 20 20"/><symbol id="sprite-icon-reddit" fill="none" viewBox="0 0 20 22"><path fill="#316DC2" d="M11.95.5a2.1 2.1 0 0 0-1.63.83c-.39.5-.6 1.1-.76 1.73a15 15 0 0 0-.34 3.16c-1.8.13-3.43.7-4.79 1.56a2.8 2.8 0 0 0-1.85-.75 2.4 2.4 0 0 0-1.92 1 3.8 3.8 0 0 0 .27 4.64q-.11.57-.12 1.18c0 4.23 4.11 7.65 9.19 7.65s9.2-3.43 9.2-7.65q-.01-.6-.13-1.18a3.8 3.8 0 0 0 .27-4.63 2.4 2.4 0 0 0-1.92-1.01c-.64 0-1.3.26-1.85.75a10 10 0 0 0-4.77-1.56c.03-.93.1-1.9.27-2.64q.17-.7.39-.98c.22-.28.25-.26.49-.26.52 0 .58.18.9.6.15.22.34.5.63.75.29.27.72.5 1.19.5v-1.85c-.13 0-.16 0-.24-.09q-.13-.14-.4-.51c-.35-.5-1.05-1.24-2.08-1.24m5.05.17c-1.2 0-2.19 1.16-2.19 2.6 0 1.42.98 2.58 2.2 2.58 1.2 0 2.18-1.16 2.18-2.59s-.98-2.59-2.19-2.59m0 .92c.78 0 1.41.75 1.41 1.67s-.63 1.67-1.4 1.67c-.79 0-1.42-.75-1.42-1.67s.64-1.67 1.41-1.67m-7 6.07c4.3 0 7.95 2.84 7.95 6.19s-3.64 6.18-7.95 6.18c-4.3 0-7.95-2.83-7.95-6.18s3.64-6.19 7.95-6.19m-7.4.84q.34 0 .66.17a8 8 0 0 0-1.82 2.42c-.3-.72-.21-1.6.15-2.07a1.2 1.2 0 0 1 1.02-.52Zm14.8 0q.6 0 1.01.52c.36.47.44 1.35.15 2.07a8 8 0 0 0-1.82-2.42q.33-.17.65-.17Zm-10.51 2.3c-.78 0-1.41.75-1.41 1.67s.63 1.67 1.4 1.67c.79 0 1.42-.75 1.42-1.67s-.63-1.67-1.41-1.67m6.22 0c-.78 0-1.4.75-1.4 1.67s.62 1.67 1.4 1.67 1.41-.75 1.41-1.67-.63-1.67-1.4-1.67Zm-6.98 5.67a4.3 4.3 0 0 0 3.87 2.38 4.3 4.3 0 0 0 3.9-2.38 6.6 6.6 0 0 1-3.9 1.15 6.5 6.5 0 0 1-3.87-1.15"/></symbol><use xlink:href="#sprite-icon-reddit" width="20" height="22" y="99"/><view id="sprite-icon-reddit-view" viewBox="0 99 20 22"/><symbol id="sprite-icon-star" fill="none" viewBox="0 0 18 22"><path fill="#FFF" d="m9 0 3.01 5.47 5.99.03-2.97 5.5 2.97 5.5-5.99.03-3.01 5.47-3.01-5.47-5.99-.03 2.97-5.5-2.97-5.5 5.99-.03z"/></symbol><use xlink:href="#sprite-icon-star" width="18" height="22" y="121"/><view id="sprite-icon-star-view" viewBox="0 121 18 22"/><symbol id="sprite-icon-vk" fill="none" viewBox="0 0 22 12"><path fill="#316DC2" d="M21.8 10.7c-.06-.1-.42-.85-2.18-2.41-1.84-1.64-1.6-1.37.62-4.2 1.35-1.72 1.9-2.77 1.73-3.22-.16-.43-1.16-.32-1.16-.32l-3.3.02s-.25-.03-.43.07-.3.34-.3.34-.52 1.33-1.22 2.47c-1.47 2.39-2.06 2.51-2.3 2.37-.56-.35-.42-1.4-.42-2.14 0-2.31.37-3.28-.72-3.53a6 6 0 0 0-1.54-.15c-1.18 0-2.18 0-2.74.27-.38.18-.67.57-.5.6.22.02.72.12.98.46.34.44.33 1.43.33 1.43s.2 2.73-.46 3.07c-.44.23-1.05-.24-2.37-2.41-.67-1.11-1.18-2.34-1.18-2.34s-.1-.23-.27-.35c-.21-.15-.51-.2-.51-.2l-3.14.02s-.47.01-.65.2c-.15.18-.01.54-.01.54s2.46 5.5 5.25 8.28c2.55 2.55 5.45 2.38 5.45 2.38h1.32s.4-.04.6-.25.18-.55.18-.55-.03-1.69.8-1.94c.8-.24 1.84 1.63 2.93 2.35.84.55 1.47.43 1.47.43l2.94-.04s1.53-.1.8-1.25"/></symbol><use xlink:href="#sprite-icon-vk" width="22" height="12" y="143"/><view id="sprite-icon-vk-view" viewBox="0 143 22 12"/></svg>